<svg height="256" viewBox="0 0 55 60" width="256" xmlns="http://www.w3.org/2000/svg"><g id="Page-1" fill="none" fill-rule="evenodd"><g id="001---Unicorn" fill-rule="nonzero" transform="translate(0 -1)"><path id="Shape" d="m36.86 57.61c-2.84 2.39-6.82 2.39-13.86 2.39-9 0-7-7-3-13 1.8951802-2.6276274 2.5320808-5.9585447 1.74-9.1-.86.07-1.77.1-2.74.1-6 0-5 5-10 5-12 0-8-13-4-15 2.67296293-1.2841131 5.1894765-2.8711943 7.5-4.73 1.4431637.5148165 2.9680989.7621948 4.5.73 2.9482283-.1751396 5.727044-1.4362944 7.8-3.54-.2436075-3.1455657.934168-6.2349332 3.21-8.42.6606834-.6061866 1.3848793-1.1392753 2.16-1.59.4624687-.2820864 1.0654615-.1446395 1.36.31.9076272 1.4519966 1.5288131 3.0643643 1.83 4.75.4302088 2.5171427.1210512 5.1050346-.89 7.45.6693522 2.6653187 1.9459353 5.1397681 3.73 7.23v.01c.02 3.92-2.2 4.64-2.2 9.8-.1159034 2.0600587.4307801 4.1031132 1.56 5.83-2.6 5.22-1.75 9.36 1.3 11.78z" fill="#f5f5f5"/><path id="Shape" d="m35.56 45.83c-1.1292199-1.7268868-1.6759034-3.7699413-1.56-5.83 0-5.16 2.22-5.88 2.2-9.8v-.01c-1.7840647-2.0902319-3.0606478-4.5646813-3.73-7.23 1.0110512-2.3449654 1.3202088-4.9328573.89-7.45-.3011869-1.6856357-.9223728-3.2980034-1.83-4.75-.2945385-.4546395-.8975313-.5920864-1.36-.31-.4515572.2662-.8857634.5607922-1.3.882.7249311 1.3003978 1.2284716 2.7123389 1.49 4.178.4302088 2.5171427.1210512 5.1050346-.89 7.45.6693522 2.6653187 1.9459353 5.1397681 3.73 7.23v.01c.02 3.92-2.2 4.64-2.2 9.8-.1159034 2.0600587.4307801 4.1031132 1.56 5.83-2.6 5.22-1.75 9.36 1.3 11.78-2.45 2.062-5.754 2.344-11.133 2.383.092 0 .178.007.273.007 7.04 0 11.02 0 13.86-2.39-3.05-2.42-3.9-6.56-1.3-11.78z" fill="#cfd8dc"/><path id="Shape" d="m24.8 20.46c-2.072956 2.1037056-4.8517717 3.3648604-7.8 3.54-1.5319011.0321948-3.0568363-.2151835-4.5-.73-3.01566032-1.1164395-5.12067482-3.8673549-5.41-7.07-.06095124-.3663171.08610906-.7362434.38192813-.9607302s.69167511-.2665608 1.02807187-.1092698c1.41.72 3.25.8 5.88-.62 1.2876549-.7133642 2.5004076-1.5542507 3.62-2.51 1.0427421-.9200281 2.302137-1.5600485 3.66-1.86 2.2953692-.36382175 4.6316884.3352344 6.35 1.9-2.275832 2.1850668-3.4536075 5.2744343-3.21 8.42z" fill="#e91e63"/><path id="Shape" d="m28.01 12.04c-1.7183116-1.5647656-4.0546308-2.26382175-6.35-1.9-.068.014-.138.04-.207.056 1.3113483.333864 2.5283694.9647853 3.557 1.844-2.275832 2.1850668-3.4536075 5.2744343-3.21 8.42-1.7965714 1.7873134-4.095497 2.9842198-6.59 3.431.5940812.0706467 1.1917362.1070402 1.79.109 2.9482283-.1751396 5.727044-1.4362944 7.8-3.54-.2436075-3.1455657.934168-6.2349332 3.21-8.42z" fill="#ad1457"/><path id="Shape" d="m49.25 32.34c-.6687234.4246097-1.3790782.7797871-2.12 1.06-.9973408.3915318-2.0585708.5949624-3.13.6-3.022003-.1001396-5.8584855-1.4820157-7.8-3.8v-.01c-1.7840647-2.0902319-3.0606478-4.5646813-3.73-7.23 1.0110512-2.3449654 1.3202088-4.9328573.89-7.45 2.3483616-2.3041517 6.0368728-2.5218763 8.64-.51 5.63 3.75-1.94 12.77 6.99 15.54.3753944.1102456.6520159.4292892.707949.8165185s-.1190969.7715114-.447949.9834815z" fill="#9d27b0"/><path id="Shape" d="m48.99 30.54c-8.93-2.77-1.36-11.79-6.99-15.54-1.5961823-1.2019341-3.6434895-1.6334474-5.589-1.178.9246589.2399083 1.8006602.6384906 2.589 1.178 5.63 3.75-1.94 12.77 6.99 15.54.3753944.1102456.6520159.4292892.707949.8165185s-.1190969.7715114-.447949.9834815c-.6687234.4246097-1.3790782.7797871-2.12 1.06-.5257246.2018926-1.0690556.3545475-1.623.456.4926717.0903303.992146.1385046 1.493.144 1.0714292-.0050376 2.1326592-.2084682 3.13-.6.7409218-.2802129 1.4512766-.6353903 2.12-1.06.3288521-.2119701.5038821-.5962522.447949-.9834815s-.3325546-.7062729-.707949-.8165185z" fill="#6a1b9a"/><path id="Shape" d="m51.67 46.57c-.8846223.7550346-1.9066425 1.3322553-3.01 1.7-1.5006962.5058363-3.0765087.752691-4.66.73-4.16 0-6.9-1.06-8.44-3.17-1.1292199-1.7268868-1.6759034-3.7699413-1.56-5.83 0-5.16 2.22-5.88 2.2-9.8 1.9415145 2.3179843 4.777997 3.6998604 7.8 3.8 1.0714292-.0050376 2.1326592-.2084682 3.13-.6.9991323 1.3103622 1.3215811 3.0152637.87 4.6-.83 4.17.42 6.25 3.17 6.83.382795.0614266.6955914.3385752.8026642.7111884.1070728.3726133-.0108748.7735389-.3026642 1.0288116z" fill="#02a9f4"/><path id="Shape" d="m51.17 44.83c-2.75-.58-4-2.66-3.17-6.83.4515811-1.5847363.1291323-3.2896378-.87-4.6-.8345552.3221403-1.7132886.5153538-2.606.573.6599604 1.2345462.8299424 2.6726083.476 4.027-.83 4.17.42 6.25 3.17 6.83.382795.0614266.6955914.3385752.8026642.7111884.1070728.3726133-.0108748.7735389-.3026642 1.0288116-.8846223.7550346-1.9066425 1.3322553-3.01 1.7-1.0501203.3605202-2.1419246.5856691-3.249.67.506.038 1.033.06 1.589.06 1.5834913.022691 3.1593038-.2241637 4.66-.73 1.1033575-.3677447 2.1253777-.9449654 3.01-1.7.2917894-.2552727.409737-.6561983.3026642-1.0288116-.1070728-.3726132-.4198692-.6497618-.8026642-.7111884z" fill="#0377bc"/><path id="Shape" d="m53.65 56.32c-.67 1.49-2.69 3.68-8.65 3.68-2.9045605.1385709-5.7713997-.7031669-8.14-2.39-3.05-2.42-3.9-6.56-1.3-11.78 1.54 2.11 4.28 3.17 8.44 3.17 1.5834913.022691 3.1593038-.2241637 4.66-.73.24286.5434848.3591171 1.1350284.34 1.73 0 2.68.8 4.56 3.82 4.93.3191052.0285521.6052099.2082709.7694616.4833431.1642517.2750721.1867614.6121895.0605384.9066569z" fill="#e91e63"/><path id="Shape" d="m52.82 54.93c-3.02-.37-3.82-2.25-3.82-4.93.0191171-.5949716-.09714-1.1865152-.34-1.73-.9039463.3064985-1.8389271.5124089-2.788.614.0876854.365447.1306667.7401901.128 1.116 0 2.68.8 4.56 3.82 4.93.3191052.0285521.6052099.2082709.7694616.4833431.1642517.2750721.1867614.6121895.0605384.9066569-.608 1.352-2.337 3.274-7.1 3.62.472.036.953.06 1.45.06 5.96 0 7.98-2.19 8.65-3.68.126223-.2944674.1037133-.6315848-.0605384-.9066569-.1642517-.2750722-.4503564-.454791-.7694616-.4833431z" fill="#ad1457"/><path id="Shape" d="m21.66 10.14c-1.357863.2999515-2.6172579.9399719-3.66 1.86-1.1195924.9557493-2.3323451 1.7966358-3.62 2.51-1.7156402-3.5605367-2.8532235-7.37160941-3.37-11.29-.070932-.39871727.0983664-.80199891.4326502-1.03060589.3342838-.22860699.7715088-.24010906 1.1173498-.02939411 3.361136 2.26116643 6.4192786 4.94292225 9.1 7.98z" fill="#ffdc00"/><g fill="#000"><path id="Shape" d="m9 44c2.0699808.0204635 4.018805-.9739336 5.217-2.662 1.0829711-1.553758 2.891701-2.4378915 4.783-2.338.652 0 1.3-.01 1.949-.038.416578 2.6316074-.2235662 5.3212195-1.781 7.483-1.9 2.848-4.806 8.143-2.947 11.616 1.044 1.95 3.324 2.939 6.779 2.939 6.648 0 10.828 0 13.894-2.156 2.4317059 1.4989638 5.2509216 2.248807 8.106 2.156 6.649 0 8.845-2.675 9.553-4.25.2658022-.5577005.2460648-1.2094069-.053-1.75-.3212354-.582588-.9018833-.9762539-1.562-1.059-2.138-.266-2.938-1.334-2.938-3.941.0016053-.3866486-.0349046-.772514-.109-1.152.8821125-.3882305 1.703312-.9022381 2.438-1.526.5718839-.4933803.8115272-1.2701819.617-2-.1985461-.7510507-.807931-1.3231739-1.57-1.474-1.573-.332-3.268-1.275-2.395-5.657.3521298-1.4499329.214291-2.9756541-.392-4.339.4095988-.2020035.8081619-.4256528 1.194-.67.6648358-.4108522 1.0235569-1.1761761.914-1.95-.1016986-.7809446-.6545929-1.4283407-1.41-1.651-4.231-1.313-4.127-4.016-4-7.439.108-2.813.231-6-2.737-7.979-3.637-2.421-6.631-1.583-8.57-.369-.3690473-1.2584933-.9090872-2.4603765-1.605-3.572-.5830987-.91385408-1.7880939-1.19680842-2.717-.638-.5871273.34846197-1.1458594.7426841-1.671 1.179-1.7069031-1.28734065-3.8318257-1.89334107-5.961-1.7-2.6458758-2.93309321-5.6404237-5.53170396-8.917-7.738-.6510942-.43406658-1.4981099-.43878533-2.154-.012-.687436.44022114-1.05326291 1.24230156-.935 2.05.4998936 3.68472515 1.5200602 7.2798866 3.03 10.678-1.2600337.6895454-2.7666746.7632558-4.088.2-.64417431-.335523-1.42202737-.281838-2.014.139-.62904474.4407264-.95687874 1.1976827-.848 1.958.3342779 2.9416765 1.99369101 5.569633 4.506 7.136-1.90724548 1.3855533-3.93272533 2.6005735-6.053 3.631-5.075 2.539-8.517 16.895 4.447 16.895zm36 15c-4.224 0-7.516-1.405-9.033-3.854-1.238-2-1.269-4.578-.112-7.518 1.6823196 1.3360932 3.7354584 2.1213839 5.88 2.249.031 2.069.547 4.509 2.5 6 1.2290573.8786765 2.7164877 1.3214562 4.226 1.258 1.3156357-.0234485 2.6226199-.2180842 3.888-.579-.825 1.114-2.769 2.444-7.349 2.444zm-10.553-39.62c.6954851-.0822939 1.3978829.0807501 1.986.461.9531284.8393439 1.5226637 2.0311424 1.577 3.3.579 4.064 1.8 6.635 3.848 8.093 1.3469517.9046361 2.9376103 1.3772989 4.56 1.355-.778889.2652117-1.5952267.4039688-2.418.411-3.674 0-8.322-2.642-10.47-10 .4566317-1.163319.7647292-2.3795819.917-3.62zm2.523 12.978c1.0631381.8823983 2.2727957 1.5715037 3.574 2.036.2616508 1.4274852.0971417 2.9004163-.473 4.235-.95594 2.2691513-.4112137 4.8929097 1.369 6.594 1.612736 1.4954031 3.7486099 2.2970293 5.947 2.232.207 0 .426-.021.64-.034-1.3042152.400531-2.662772.5958636-4.027.579-6.309 0-9-2.393-9-8-.0287488-1.808157.3599965-3.5985752 1.136-5.232.352479-.7755946.6316934-1.582437.834-2.41zm11.03 17.642c0 1.007.006 3.576 2.1 5-2.033.319-3.6.092-4.646-.708-1.181533-1.1053942-1.8087932-2.6799604-1.711-4.295.088 0 .17.007.26.007 1.3349539.0096764 2.6656909-.150953 3.96-.478.0218468.157113.0342026.3154001.037.474zm-.981-12.195c-.879 4.415.524 6.484 2.352 7.434-3.038.641-5.3-.231-6.524-1.437-1.2081288-1.1360964-1.5755188-2.9070839-.919-4.43.5935442-1.4122725.8427324-2.9454483.727-4.473.4455615.0637865.8949092.0975293 1.345.101.9174135-.0054463 1.8293256-.1421658 2.708-.406.4772435 1.0006795.5873336 2.1373331.311 3.211zm-5.573-21.973c2.034 1.356 1.948 3.618 1.847 6.237-.113 2.932-.238 6.474 3.348 8.536-1.2821537.0532267-2.5487779-.2964763-3.622-1-1.57-1.118-2.533-3.262-3.029-6.748-.1154822-1.821627-.9901819-3.5111653-2.411-4.657-.8926772-.6017571-1.9582669-.8937139-3.033-.831-.0133805-.4844312-.0527706-.9677941-.118-1.448 1.591-1.238 3.998-2.098 7.018-.089zm-24.553-9.046c-1.3949664.15600892-2.8042122.13181009-4.193-.072-.265-1.141-.5-2.378-.691-3.72 1.7150763 1.14767315 3.3471209 2.4148134 4.884 3.792zm-3.643 2.014c.5897857.05960101 1.1822105.0893057 1.775.089 1.2508822-.00753743 2.4986821-.12498923 3.729-.351.367.364.737.739 1.11 1.133-.9041831.3976011-1.746207.9236976-2.5 1.562-.8041495.6793068-1.6516026 1.3056271-2.537 1.875-.6237809-1.3981594-1.1506902-2.8375537-1.577-4.308zm5.391 3.97c3.118-2.6 5.9-1.91 7.886-.588-.726915.8420479-1.3195537 1.7912142-1.757 2.814-1.3884771-.165693-2.7948903.0845449-4.041.719-.0310262.011698-.0614031.0250505-.091.04-.8019168.4052113-1.5582145.8949945-2.256 1.461-.6119966.4952976-1.295831.8945382-2.028 1.184-2.5442158 1.0444422-5.4727462.2490338-7.139-1.939 2.569.652 5.668-.561 9.426-3.693zm-9.616 6.319c1.4196915 1.1356735 3.1819696 1.7574052 5 1.764 1.0434432-.0013848 2.0772339-.1998645 3.047-.585.9205604-.36203 1.7804641-.8624602 2.55-1.484.5720625-.4647133 1.1903003-.8694999 1.845-1.208.027-.011.054-.022.08-.035.7974157-.4141707 1.6855796-.6228067 2.584-.607-.2332301 1.011748-.344356 2.0478035-.331 3.086-1.8496792 1.7561014-4.2551245 2.8102524-6.8 2.98-4.5 0-6.81-1.769-7.975-3.913zm-3.578 9.811c2.56800482-1.2395007 4.9972658-2.7479421 7.247-4.5 1.3962021.419037 2.8484285.6213909 4.306.6 2.5780818-.1252916 5.0548715-1.042259 7.093-2.626.180628.4558918.6693553.7092111 1.146.594.5357717-.1320201.8633516-.673064.732-1.209-.8897134-4.1449797 1.0221067-8.3864886 4.717-10.465 2.3273767 3.7162884 2.4846132 8.3948369.412 12.259-.1553431.3108588-.1381628.6800764.0453763.9751664.183539.2950901.5071168.4737357.8546237.4718336.025 0 .048-.008.073-.01.7000468 2.0321788 1.7554337 3.9238844 3.117 5.587-.0688906 1.1860625-.3749237 2.3462679-.9 3.412-.8826713 1.8791072-1.3239193 3.9351864-1.29 6.011-.0861629 2.0666604.4037323 4.1166035 1.415 5.921-2.286 4.952-1.365 8.313-.148 10.278.2965427.4662734.6389081.9017676 1.022 1.3-2.537 1.501-6.2 1.501-12.289 1.501-2.66 0-4.347-.634-5.016-1.883-.984-1.838.081-5.412 2.848-9.562 1.8085855-2.5359787 2.5667635-5.6729582 2.116-8.755 3.864-.5 7.132-2.192 8.038-7.631.0685105-.3564798-.0615399-.7220917-.3397811-.9552298-.2782412-.233138-.6609723-.2971853-.9999569-.1673356-.3389846.1298498-.5809814.4332023-.632262.7925654-.869 5.207-4.054 6.161-10.014 6.161-2.4582008-.0976965-4.8059923 1.0251115-6.273 3-1.038 1.16-1.788 2-3.727 2-.325 0-.621-.024-.924-.044 1.20558082-.9279396 2.1717825-2.1307201 2.818-3.508.2485281-.4937426.0497426-1.0954719-.444-1.344-.49374257-.2485281-1.09547186-.0497426-1.344.444-1.064 2.126-2.482 3.352-4.206 3.667-1.39031633-.6183576-2.40121524-1.8641418-2.72-3.352-.842-3.558 1.409-8.039 3.267-8.963z"/><path id="Shape" d="m29.73 21.733c.1906193-.1789909.3007178-.4274855.3052384-.6889296.0045207-.2614441-.0969211-.5135964-.2812384-.6990704 0 0-.552-.789.2-3.029.1745219-.5246705-.1093295-1.091478-.634-1.2659999-.5246705-.174522-1.091478.1093294-1.266.6339999-1.137 3.413 0 4.783.242 5.023.392009.3957532 1.0279025.4072827 1.434.026z"/><path id="Shape" d="m6 34c0 .5522847.44771525 1 1 1s1-.4477153 1-1c.01129421-.5338153-.19579064-1.0491116-.5733395-1.4266605s-.89284524-.5846337-1.4266605-.5733395c-.55228475 0-1 .4477153-1 1s.44771525 1 1 1z"/><path id="Shape" d="m19.727 29.992c1.131651.0316088 2.2198307-.4365828 2.975-1.28.2781341-.2447262.3981793-.6231663.3119663-.9834673s-.3645552-.6434148-.7233389-.735739-.7392094.0212717-.9886274.2952063c-.3523357.4243173-.8661917.6817893-1.417.71-.4269069-.0611665-.8157937-.2789574-1.091-.611-.3366176-.4401709-.966329-.5241175-1.4065-.1875-.4401709.3366176-.5241175.9663291-.1875 1.4065.6208996.783943 1.5321977 1.2837686 2.527 1.386z"/></g></g></g></svg>
